<svg xmlns="http://www.w3.org/2000/svg" width="300" height="185.983" viewBox="0 0 300 185.983">
  <g id="CreditCardFront" transform="translate(-4292.083 3513.639)">
    <g id="Group_585" data-name="Group 585" transform="translate(4292.083 -3513.639)">
      <g id="Group_293" data-name="Group 293">
        <path id="Path_946" data-name="Path 946" d="M492.6,405.976a15.542,15.542,0,0,1-15.607,15.607H208.207A15.542,15.542,0,0,1,192.6,405.976V251.207A15.542,15.542,0,0,1,208.207,235.6H476.993A15.542,15.542,0,0,1,492.6,251.207Z" transform="translate(-192.6 -235.6)" fill="#f0f0f0"/>
      </g>
      <g id="Group_302" data-name="Group 302" transform="translate(27.79 53.301)">
        <g id="Group_294" data-name="Group 294" transform="translate(0 31.264)">
          <path id="Path_947" data-name="Path 947" d="M199,255.969a6.859,6.859,0,0,0,6.947,6.947h7.382V255.1H199Z" transform="translate(-199 -255.1)" fill="#d5d5d5"/>
        </g>
        <g id="Group_295" data-name="Group 295" transform="translate(0 20.842)">
          <rect id="Rectangle_190" data-name="Rectangle 190" width="14.329" height="7.816" fill="#d5d5d5"/>
        </g>
        <g id="Group_296" data-name="Group 296">
          <path id="Path_948" data-name="Path 948" d="M199,254.848v.868h14.329V247.9h-7.382A6.859,6.859,0,0,0,199,254.848Z" transform="translate(-199 -247.9)" fill="#d5d5d5"/>
        </g>
        <g id="Group_297" data-name="Group 297" transform="translate(16.5)">
          <path id="Path_949" data-name="Path 949" d="M222.34,247.9H202.8v39.08h9.987V255.716h16.5v-.868A6.859,6.859,0,0,0,222.34,247.9Z" transform="translate(-202.8 -247.9)" fill="#d5d5d5"/>
        </g>
        <g id="Group_298" data-name="Group 298" transform="translate(0 10.421)">
          <rect id="Rectangle_191" data-name="Rectangle 191" width="14.329" height="7.816" fill="#d5d5d5"/>
        </g>
        <g id="Group_299" data-name="Group 299" transform="translate(29.092 10.421)">
          <rect id="Rectangle_192" data-name="Rectangle 192" width="13.895" height="7.816" fill="#d5d5d5"/>
        </g>
        <g id="Group_300" data-name="Group 300" transform="translate(29.092 20.842)">
          <rect id="Rectangle_193" data-name="Rectangle 193" width="13.895" height="7.816" fill="#d5d5d5"/>
        </g>
        <g id="Group_301" data-name="Group 301" transform="translate(29.092 31.264)">
          <path id="Path_950" data-name="Path 950" d="M205.7,262.916h6.947a6.859,6.859,0,0,0,6.948-6.948V255.1H205.7v7.816Z" transform="translate(-205.7 -255.1)" fill="#d5d5d5"/>
        </g>
      </g>
      <g id="Group_308" data-name="Group 308" transform="translate(229.657 142.127)">
        <g id="Group_305" data-name="Group 305" transform="translate(25.619 0.434)">
          <g id="Group_304" data-name="Group 304">
            <path id="Path_952" data-name="Path 952" d="M257.145,268.5a22,22,0,0,0-5.645.868c4.776,3.04,7.382,8.25,7.382,14.329a17.458,17.458,0,0,1-7.382,14.329c1.737.868,3.474.868,5.645.868a15.567,15.567,0,0,0,15.632-15.632A15.4,15.4,0,0,0,257.145,268.5Z" transform="translate(-251.5 -268.5)" fill="#f1c40f"/>
          </g>
        </g>
        <g id="Group_307" data-name="Group 307">
          <g id="Group_306" data-name="Group 306">
            <path id="Path_953" data-name="Path 953" d="M276.864,284.032a15.336,15.336,0,0,0-7.816-13.461,15,15,0,0,0-7.816-2.171,15.632,15.632,0,1,0,0,31.264,16.251,16.251,0,0,0,7.816-2.171A15.336,15.336,0,0,0,276.864,284.032Z" transform="translate(-245.6 -268.4)" fill="#e74c3c"/>
          </g>
        </g>
      </g>
      <g id="Group_310" data-name="Group 310" transform="translate(25.465 19.25)">
        <path id="Path_976" data-name="Path 976" d="M223.287,254.663a8.669,8.669,0,0,1-3.908.869,5.7,5.7,0,0,1-6.079-6.079,10.476,10.476,0,0,1,3.039-7.382,9.145,9.145,0,0,1,5.645-2.171,5.611,5.611,0,0,1,3.474.868l-.434,1.3c-.434-.434-1.737-.434-3.039-.434a5.575,5.575,0,0,0-4.342,1.737,8.255,8.255,0,0,0-2.171,5.645c0,2.605,1.3,4.776,4.776,4.776a24.479,24.479,0,0,0,3.039-.434Z" transform="translate(-154.957 -239.466)" fill="#536e86"/>
        <path id="Path_977" data-name="Path 977" d="M222.947,251.855a6.454,6.454,0,0,1,.434-2.605h0c-1.3,2.171-2.605,3.04-4.342,3.04a3.356,3.356,0,0,1-3.04-3.474c0-3.908,2.605-7.816,7.382-7.816a7.39,7.39,0,0,1,3.04.434l-1.3,5.645a22.945,22.945,0,0,0-.434,5.211h-1.737Zm1.3-9.553h-1.3c-2.605,0-5.211,3.04-5.211,6.079,0,1.3.434,2.605,1.737,2.605,1.737,0,3.474-2.171,3.908-4.776Z" transform="translate(-145.933 -235.789)" fill="#536e86"/>
        <path id="Path_978" data-name="Path 978" d="M218.7,252.19l1.3-6.948a13.394,13.394,0,0,0,.434-3.908h1.737a3.254,3.254,0,0,1-.434,2.171h0c.868-1.3,1.737-2.605,3.474-2.605h.434l-.434,1.737h-.434c-1.737,0-3.04,1.737-3.474,4.342l-.868,4.776H218.7Z" transform="translate(-136.91 -236.124)" fill="#536e86"/>
        <path id="Path_979" data-name="Path 979" d="M231.255,239.8l-2.171,12.592a9.56,9.56,0,0,0-.434,3.474h-1.737l.434-2.171h0a4.173,4.173,0,0,1-3.908,2.605c-2.171,0-3.039-1.737-3.039-3.908,0-3.908,3.039-7.382,6.513-7.382.868,0,1.3,0,1.737.434l.868-5.211h1.737Zm-3.039,6.513c-.434-.434-.868-.434-1.737-.434-2.605,0-4.776,2.605-4.776,5.645,0,1.3.434,2.605,2.171,2.605,1.3,0,3.039-1.737,3.474-3.908Z" transform="translate(-131.228 -239.8)" fill="#536e86"/>
        <path id="Path_1252" data-name="Path 1252" d="M-53.124-11.5v3.738h5.7V-11.5a1.747,1.747,0,0,1,.36-1.2,1.214,1.214,0,0,1,.948-.4,1.259,1.259,0,0,1,.966.4,1.716,1.716,0,0,1,.369,1.206V-1.224a1.719,1.719,0,0,1-.374,1.21,1.256,1.256,0,0,1-.961.4,1.2,1.2,0,0,1-.952-.4,1.779,1.779,0,0,1-.356-1.206V-5.611h-5.7v4.387A1.719,1.719,0,0,1-53.5-.014a1.256,1.256,0,0,1-.961.4,1.2,1.2,0,0,1-.952-.4,1.779,1.779,0,0,1-.356-1.206V-11.5a1.777,1.777,0,0,1,.352-1.2,1.208,1.208,0,0,1,.957-.4,1.259,1.259,0,0,1,.966.4A1.716,1.716,0,0,1-53.124-11.5Zm19.729,8.881a2.1,2.1,0,0,1-.271.97,3.333,3.333,0,0,1-.828.983,4.278,4.278,0,0,1-1.4.752,5.947,5.947,0,0,1-1.9.285A4.65,4.65,0,0,1-41.315-.944a4.861,4.861,0,0,1-1.264-3.52A5.8,5.8,0,0,1-42-7.107a4.153,4.153,0,0,1,1.673-1.775,5.176,5.176,0,0,1,2.616-.627,5.2,5.2,0,0,1,1.731.276,4.521,4.521,0,0,1,1.335.712,3.413,3.413,0,0,1,.837.93,1.842,1.842,0,0,1,.289.921.971.971,0,0,1-.325.739,1.114,1.114,0,0,1-.788.3.794.794,0,0,1-.5-.156,2.468,2.468,0,0,1-.449-.5,3.679,3.679,0,0,0-.93-1.014,2.106,2.106,0,0,0-1.233-.338,2.1,2.1,0,0,0-1.735.841,3.639,3.639,0,0,0-.659,2.3,4.443,4.443,0,0,0,.169,1.259,2.862,2.862,0,0,0,.489.979,2.1,2.1,0,0,0,.774.614,2.353,2.353,0,0,0,1,.209,2.245,2.245,0,0,0,1.25-.338,2.958,2.958,0,0,0,.921-1.032,2.375,2.375,0,0,1,.481-.641.912.912,0,0,1,.632-.231.937.937,0,0,1,.739.338A1.083,1.083,0,0,1-33.394-2.621Zm11.213-1.931a5.743,5.743,0,0,1-.338,2A4.421,4.421,0,0,1-23.5-.975,4.322,4.322,0,0,1-25.029.035a5.412,5.412,0,0,1-2,.352A5.257,5.257,0,0,1-29.016.031,4.407,4.407,0,0,1-30.542-.988a4.406,4.406,0,0,1-.979-1.566,5.726,5.726,0,0,1-.334-2,5.8,5.8,0,0,1,.338-2.02,4.4,4.4,0,0,1,.97-1.566,4.276,4.276,0,0,1,1.531-1,5.4,5.4,0,0,1,1.984-.352,5.4,5.4,0,0,1,2,.356,4.355,4.355,0,0,1,1.54,1.014,4.385,4.385,0,0,1,.974,1.566A5.764,5.764,0,0,1-22.182-4.552Zm-2.438,0a3.646,3.646,0,0,0-.654-2.314,2.124,2.124,0,0,0-1.758-.828,2.177,2.177,0,0,0-1.255.369,2.34,2.34,0,0,0-.837,1.09,4.437,4.437,0,0,0-.294,1.682,4.4,4.4,0,0,0,.289,1.664A2.386,2.386,0,0,0-28.3-1.8a2.15,2.15,0,0,0,1.268.378,2.12,2.12,0,0,0,1.758-.832A3.634,3.634,0,0,0-24.62-4.552ZM-13.612-1v-.24a6.173,6.173,0,0,1-.966.912A3.635,3.635,0,0,1-15.61.2a3.878,3.878,0,0,1-1.215.182A3.579,3.579,0,0,1-18.44.017a3.77,3.77,0,0,1-1.286-1.055,4.808,4.808,0,0,1-.823-1.611,6.877,6.877,0,0,1-.28-2A5.219,5.219,0,0,1-19.717-8.2a3.7,3.7,0,0,1,2.928-1.273,3.933,3.933,0,0,1,1.771.36,4.937,4.937,0,0,1,1.406,1.108v-3.586a1.815,1.815,0,0,1,.3-1.13,1.014,1.014,0,0,1,.85-.383,1.053,1.053,0,0,1,.85.352,1.566,1.566,0,0,1,.3,1.037V-1a1.488,1.488,0,0,1-.32,1.041,1.075,1.075,0,0,1-.828.347,1.06,1.06,0,0,1-.823-.36A1.484,1.484,0,0,1-13.612-1ZM-18.391-4.57a4.145,4.145,0,0,0,.307,1.682,2.343,2.343,0,0,0,.841,1.046,2.078,2.078,0,0,0,1.166.352,2.151,2.151,0,0,0,1.17-.334,2.294,2.294,0,0,0,.845-1.023,4.134,4.134,0,0,0,.316-1.722,4.026,4.026,0,0,0-.316-1.669,2.508,2.508,0,0,0-.854-1.068,2.041,2.041,0,0,0-1.179-.369,1.989,1.989,0,0,0-1.192.378A2.428,2.428,0,0,0-18.1-6.212,4.316,4.316,0,0,0-18.391-4.57ZM-2.1-3.956H-6.848A3.226,3.226,0,0,0-6.515-2.5a2.291,2.291,0,0,0,.863.952,2.28,2.28,0,0,0,1.188.32,2.91,2.91,0,0,0,.8-.1,2.594,2.594,0,0,0,.7-.32,5.329,5.329,0,0,0,.623-.467q.285-.249.739-.676a.8.8,0,0,1,.534-.16.88.88,0,0,1,.605.2.732.732,0,0,1,.231.578,1.58,1.58,0,0,1-.258.77,3.055,3.055,0,0,1-.779.845A4.435,4.435,0,0,1-2.581.12,5.634,5.634,0,0,1-4.392.386,4.845,4.845,0,0,1-8.032-.948a4.971,4.971,0,0,1-1.3-3.622,6.042,6.042,0,0,1,.32-2,4.4,4.4,0,0,1,.934-1.58,4.052,4.052,0,0,1,1.513-1.01A5.43,5.43,0,0,1-4.57-9.509a4.727,4.727,0,0,1,2.443.6A3.951,3.951,0,0,1-.6-7.356a4.083,4.083,0,0,1,.507,1.94q0,.917-.525,1.188A3.272,3.272,0,0,1-2.1-3.956ZM-6.848-5.336h4.405A2.953,2.953,0,0,0-3.115-7.2,2.011,2.011,0,0,0-4.65-7.818a1.944,1.944,0,0,0-1.491.627A3.121,3.121,0,0,0-6.848-5.336Z" transform="translate(55.767 14.647)" fill="#536e86"/>
      </g>
      <text id="_00_00" data-name="00/00" transform="translate(56.917 161.343)" fill="#536e86" font-size="15" font-family="SegoeUI, Segoe UI"><tspan x="-38.188" y="0">00/00</tspan></text>
      <text id="JOAO_RANGEL" data-name="JOAO RANGEL" transform="translate(72.69 147.343)" fill="#536e86" font-size="20" font-family="SegoeUI, Segoe UI"><tspan x="0" y="22">JOAO RANGEL</tspan></text>
    </g>
    <g id="Group_586" data-name="Group 586" transform="translate(4506.043 -3496.35)">
      <path id="Path_1253" data-name="Path 1253" d="M244.1,275.728v6.515h1.572v-6.831c0-1.479-.736-5.173-4.77-5.194a5.219,5.219,0,0,0-3.842,1.767v-8.2H235.49v18.455h1.572v-6.3c0-3.508,2.156-4.3,3.756-4.242,2.279.089,3.284,2.008,3.284,4.029" transform="translate(-235.49 -263.788)" fill="#536e86" fill-rule="evenodd"/>
      <path id="Path_1254" data-name="Path 1254" d="M293.483,289.083a6.4,6.4,0,0,1,4.54,1.881l-1.112,1.112a4.848,4.848,0,1,0,0,6.856l1.112,1.112a6.42,6.42,0,1,1-4.54-10.96" transform="translate(-274.521 -282.931)" fill="#536e86" fill-rule="evenodd"/>
      <path id="Path_1255" data-name="Path 1255" d="M348.249,290.655A4.848,4.848,0,1,1,343.4,295.5a4.848,4.848,0,0,1,4.848-4.848m0-1.572a6.42,6.42,0,1,1-6.42,6.42A6.42,6.42,0,0,1,348.249,289.083Z" transform="translate(-315.969 -282.931)" fill="#536e86" fill-rule="evenodd"/>
      <path id="Path_1256" data-name="Path 1256" d="M415.6,276.349h-.005v-.211a4.848,4.848,0,1,0,.005.223Zm-4.848-6.409a6.405,6.405,0,0,1,4.843,2.205v-8.357h1.575v12.4c0,.057,0,.113,0,.17a6.42,6.42,0,1,1-6.421-6.42Z" transform="translate(-363.269 -263.788)" fill="#536e86" fill-rule="evenodd"/>
      <path id="Path_1257" data-name="Path 1257" d="M477.661,293.5a4.849,4.849,0,0,0-9.243,2.477Zm-6.08-4.2a6.423,6.423,0,0,1,8.021,5.312L468.825,297.5a4.848,4.848,0,0,0,8.617.427l1.361.786a6.42,6.42,0,1,1-7.222-9.412Z" transform="translate(-410.564 -282.927)" fill="#536e86" fill-rule="evenodd"/>
    </g>
    <text id="_0000" data-name="0000" transform="translate(4340 -3388.2)" fill="#536e86" font-size="26" font-family="SegoeUI, Segoe UI"><tspan x="-28.031" y="0">0000</tspan></text>
    <text id="_0000-2" data-name="0000" transform="translate(4407.824 -3388.2)" fill="#536e86" font-size="26" font-family="SegoeUI, Segoe UI"><tspan x="-28.031" y="0">0000</tspan></text>
    <text id="_0000-3" data-name="0000" transform="translate(4476.698 -3388.2)" fill="#536e86" font-size="26" font-family="SegoeUI, Segoe UI"><tspan x="-28.031" y="0">0000</tspan></text>
    <text id="_0000-4" data-name="0000" transform="translate(4544.522 -3388.2)" fill="#536e86" font-size="26" font-family="SegoeUI, Segoe UI"><tspan x="-28.031" y="0">0000</tspan></text>
  </g>
</svg>
